<svg xmlns:dc="http://purl.org/dc/elements/1.1/" xmlns:cc="http://creativecommons.org/ns#" xmlns:rdf="http://www.w3.org/1999/02/22-rdf-syntax-ns#" xmlns:svg="http://www.w3.org/2000/svg" xmlns="http://www.w3.org/2000/svg" xmlns:sodipodi="http://sodipodi.sourceforge.net/DTD/sodipodi-0.dtd" xmlns:inkscape="http://www.inkscape.org/namespaces/inkscape" viewBox="0 0 511.99998 639.999975" version="1.1" x="0px" y="0px"><g transform="translate(-88.749289,-131.31133)"><path style="opacity:1;fill:#EB465A;fill-opacity:1;fill-rule:nonzero;stroke:none;stroke-width:25;stroke-linecap:butt;stroke-linejoin:miter;stroke-miterlimit:4;stroke-dasharray:none;stroke-dashoffset:0;stroke-opacity:1" d="m 344.74928,137.31132 a 250,250 0 0 0 -250.000001,250 250,250 0 0 0 250.000001,250 250,250 0 0 0 250,-250 250,250 0 0 0 -250,-250 z m 0,36 a 214,214 0 0 1 214,214 214,214 0 0 1 -214,214 214,214 0 0 1 -214,-214 214,214 0 0 1 214,-214 z m -68.59961,103.55664 c -37.29175,-0.14475 -72.62891,27.8933 -72.62891,71.39453 0,85.85007 82.25668,94.96914 141.22852,183.4336 58.97186,-88.46446 141.22852,-97.58353 141.22852,-183.4336 0,-73.26523 -100.23304,-102.66636 -141.22852,-27.44336 -16.65442,-30.55933 -43.08421,-43.85221 -68.59961,-43.95117 z"/></g></svg>
