<?xml version="1.0" standalone="no"?>
<!DOCTYPE svg PUBLIC "-//W3C//DTD SVG 20010904//EN"
 "http://www.w3.org/TR/2001/REC-SVG-20010904/DTD/svg10.dtd">
<svg version="1.0" xmlns="http://www.w3.org/2000/svg"
 width="1640.000000pt" height="624.000000pt" viewBox="0 0 1640.000000 624.000000"
 preserveAspectRatio="xMidYMid meet">
<metadata>
Created by potrace 1.15, written by Peter Selinger 2001-2017
</metadata>
<g transform="translate(0.000000,624.000000) scale(0.100000,-0.100000)"
fill="#EB465A" stroke="none">
<path d="M8275 4955 c-131 -35 -257 -113 -372 -231 -177 -181 -220 -389 -99
-491 68 -58 179 -94 366 -118 63 -9 163 -22 222 -30 168 -22 203 -50 141 -111
-51 -51 -190 -114 -373 -169 -85 -25 -171 -54 -190 -63 -39 -19 -53 -58 -25
-69 48 -18 350 74 513 156 174 88 220 135 201 204 -23 84 -105 115 -359 137
-295 25 -414 64 -457 148 -29 59 -24 117 21 206 65 132 207 274 331 332 64 30
88 30 131 -2 27 -21 40 -25 68 -20 59 11 99 89 64 124 -16 16 -120 14 -183 -3z"/>
<path d="M5737 4810 c-27 -10 -73 -38 -103 -61 -267 -205 -528 -829 -414 -989
29 -40 103 -82 170 -96 151 -30 286 26 486 205 51 44 95 81 98 81 4 0 4 -10 1
-22 -10 -46 -13 -285 -4 -353 9 -75 35 -145 53 -145 6 0 23 10 38 23 28 22 28
22 16 92 -16 104 -16 475 1 560 23 115 46 166 91 197 74 51 45 75 -78 63 -160
-15 -372 -83 -372 -120 0 -13 22 -15 136 -15 156 0 151 7 86 -104 -82 -141
-194 -258 -305 -317 -50 -26 -76 -33 -139 -37 -97 -6 -140 2 -177 34 -39 33
-47 79 -32 171 33 198 156 443 334 665 17 21 92 55 204 92 98 33 113 46 84 75
-27 27 -107 28 -174 1z"/>
<path d="M7324 4639 c-51 -15 -69 -46 -97 -169 -59 -260 -69 -385 -49 -631 15
-183 46 -224 147 -195 100 30 175 114 219 246 63 188 61 446 -5 585 -35 76
-93 143 -136 161 -36 16 -36 16 -79 3z m138 -152 c30 -38 41 -122 36 -277 -9
-273 -73 -439 -179 -465 -46 -11 -53 33 -53 315 0 301 16 392 78 443 28 24 94
15 118 -16z"/>
<path d="M10775 4599 c-91 -22 -154 -95 -220 -254 -53 -130 -104 -222 -136
-250 -30 -24 -38 -58 -18 -71 6 -3 31 -6 55 -6 l44 1 1 -52 c3 -188 35 -278
115 -317 53 -26 106 -25 176 4 205 84 480 395 397 449 -35 22 -64 -1 -144
-113 -132 -186 -238 -270 -343 -270 -93 0 -127 58 -116 200 8 112 15 163 24
180 5 10 65 48 132 85 151 83 242 142 287 184 29 28 33 36 28 68 -18 112 -159
193 -282 162z m140 -113 c29 -19 32 -51 9 -84 -32 -46 -203 -145 -266 -154
-19 -2 -23 1 -20 22 7 63 87 184 146 222 36 22 92 19 131 -6z"/>
<path d="M6779 4557 c-51 -15 -98 -45 -129 -84 -61 -78 -97 -245 -100 -463 -1
-58 -3 -70 -11 -51 -9 23 -47 275 -69 469 -11 91 -15 105 -34 111 -28 11 -60
-2 -64 -25 -1 -10 27 -206 62 -434 71 -453 68 -444 135 -438 29 2 36 8 42 32
7 27 20 173 34 386 13 200 48 309 117 363 30 24 51 31 120 38 104 12 115 15
121 39 10 40 -22 61 -103 66 -45 2 -93 -1 -121 -9z"/>
<path d="M10049 4557 c-51 -15 -98 -45 -129 -84 -61 -78 -97 -245 -100 -463
-1 -58 -3 -70 -11 -51 -9 23 -47 275 -69 469 -11 91 -15 105 -34 111 -28 11
-60 -2 -64 -25 -1 -10 27 -206 62 -434 71 -453 68 -444 135 -438 29 2 36 8 42
32 7 27 20 173 34 386 13 200 48 309 117 363 30 24 51 31 120 38 104 12 115
15 121 39 10 40 -22 61 -103 66 -45 2 -93 -1 -121 -9z"/>
<path d="M8875 4520 c-18 -6 -19 -16 -17 -206 4 -336 22 -492 69 -597 32 -70
63 -97 113 -97 60 0 159 77 225 174 30 43 34 46 43 30 6 -11 15 -56 20 -102
11 -92 29 -122 71 -122 50 0 52 9 26 105 -38 141 -44 229 -40 528 l4 277 -49
0 -50 0 -1 -122 c0 -68 -2 -141 -4 -163 -2 -22 -6 -68 -9 -102 -13 -148 -162
-393 -241 -393 -40 0 -60 82 -71 292 -22 434 -28 490 -49 498 -11 4 -29 4 -40
0z"/>
<path d="M2050 4250 l0 -100 870 0 870 0 0 100 0 100 -870 0 -870 0 0 -100z"/>
<path d="M12610 4250 l0 -100 870 0 870 0 0 100 0 100 -870 0 -870 0 0 -100z"/>
<path d="M7682 2198 c3 -212 4 -225 26 -264 26 -44 67 -73 116 -84 l31 -6 5
-344 5 -345 53 0 52 -1 0 347 0 346 35 6 c49 8 90 40 114 90 19 40 21 61 21
260 l0 217 -55 0 -55 0 0 -213 c0 -195 -2 -215 -18 -230 -40 -37 -42 -27 -42
213 l0 230 -55 0 -55 0 0 -230 c0 -244 -1 -248 -46 -216 -18 13 -19 30 -22
230 l-3 216 -56 0 -55 0 4 -222z"/>
<path d="M8376 1794 c1 -346 2 -631 3 -635 1 -4 74 -4 104 0 4 0 7 94 7 207
-1 113 2 209 5 213 4 3 54 31 113 61 l107 55 0 245 c0 217 -2 251 -19 294 -40
104 -139 174 -261 184 l-60 4 1 -628z m174 450 c24 -22 44 -51 50 -74 6 -22 9
-118 8 -222 l-3 -183 -50 -27 c-27 -15 -54 -28 -60 -28 -6 0 -9 81 -8 227 2
126 3 254 3 286 0 31 4 57 10 57 5 0 28 -16 50 -36z"/>
</g>
</svg>
