<svg xmlns="http://www.w3.org/2000/svg" data-name="Camada 1" viewBox="0 0 100 125" x="0px" y="0px"><title>Recipe</title><path fill="#ff471a " d="M96.44,38.69c-.09-.13-.17-.26-.25-.39a21.63,21.63,0,0,1-2.43-4.49,22.71,22.71,0,0,1-.72-5.3c-.21-3.25-.45-6.94-2.59-9.88s-5.61-4.34-8.65-5.54A22.23,22.23,0,0,1,77,10.79,21.84,21.84,0,0,1,73.45,7l-.63-.78a33.16,33.16,0,0,0-.11-3.37L72.45,0,69.58.15a37.34,37.34,0,0,0-3.74.43c-4.42.72-11.92,2.57-18,7.29a25,25,0,0,0-4.59,4.6c-.18.23-.35.47-.52.7a32.24,32.24,0,0,1,3.46,6,16.28,16.28,0,0,1,1.82-3.05C52.44,10.34,60,7.88,65,6.86q1-.19,1.8-.33c0,.56,0,1.19-.08,1.86C66.4,13.46,65,21.3,60,26.45a18.07,18.07,0,0,1-10.71,5.09h-4A30.41,30.41,0,0,0,37.84,13.4C25.8-.3,3.87,0,2.94,0L.06.07,0,3c0,.92-.3,22.88,13.39,34.92l1,.82H0v2.93C0,43.09.07,44.54.2,46c0,0,0,0,0,0a46.65,46.65,0,0,0,1.49,8.23A47.41,47.41,0,0,0,6.88,66.33,49.88,49.88,0,0,0,20.67,81.19V100H79.33V81.19A49.88,49.88,0,0,0,93.12,66.33a47.41,47.41,0,0,0,5.19-12.11A46.65,46.65,0,0,0,99.8,46s0,0,0,0c.13-1.43.2-2.88.2-4.35V38.69ZM6.12,6.13c6,.42,19.42,2.36,27.21,11.24C38,22.71,40,29.87,39.16,38.69H28.09a23.42,23.42,0,0,1-10.72-5.3C8.51,25.61,6.55,12.14,6.12,6.13Zm67.21,88H26.67V84.85a51.77,51.77,0,0,0,6.62,2.85,49.22,49.22,0,0,0,7.79,2h0a50.64,50.64,0,0,0,17.82,0h0a49.22,49.22,0,0,0,7.79-2,51.77,51.77,0,0,0,6.62-2.85Zm20.4-47.75a39.63,39.63,0,0,1-1,5.59,42.06,42.06,0,0,1-5.45,12.53,44.51,44.51,0,0,1-74.52-.05A41.59,41.59,0,0,1,7.47,52.65c-.06-.21-.11-.43-.16-.64h0a41.41,41.41,0,0,1-1-5.59c-.07-.62-.13-1.23-.17-1.85H93.9C93.86,45.17,93.8,45.79,93.73,46.39Z"/></svg>
