<svg xmlns="http://www.w3.org/2000/svg" viewBox="0 0 96 120" x="0px" y="0px"><title>Artboard 37</title><g><path fill="#ff471a " d="M12,14V82a6.0066,6.0066,0,0,0,6,6h2V8H18A6.0066,6.0066,0,0,0,12,14Z"/><path fill="#ff471a" d="M82,8H24V88H82a1.9988,1.9988,0,0,0,2-2V10A1.9988,1.9988,0,0,0,82,8ZM44,47.7041V70a2,2,0,0,1-4,0V47.7041c-3.0862-.8228-6-3.6379-6-9.7041,0-5.7227,2.8477-14,8-14s8,8.2773,8,14C50,44.0662,47.0862,46.8813,44,47.7041ZM74,38a10.0151,10.0151,0,0,1-8,9.7976V70a2,2,0,0,1-4,0V47.7976A10.0151,10.0151,0,0,1,54,38V28a2,2,0,0,1,4,0V38a5.99,5.99,0,0,0,4,5.6316V28a2,2,0,0,1,4,0V43.6316A5.99,5.99,0,0,0,70,38V28a2,2,0,0,1,4,0Z"/><path fill="#ff471a" d="M42,28c-1.3516,0-4,4.5273-4,10,0,2.24.52,6,4,6s4-3.76,4-6C46,32.5273,43.3516,28,42,28Z"/></g></svg>
