<svg xmlns="http://www.w3.org/2000/svg" xmlns:xlink="http://www.w3.org/1999/xlink" width="50" height="30" preserveAspectRatio="xMidYMid meet" viewBox="0 0 128 128" style="-ms-transform: rotate(360deg); -webkit-transform: rotate(360deg); transform: rotate(360deg);"><path d="M65.36 19.02l12.36-14.3c1.14-1.32 3.3-.74 3.62.97l3.56 18.56a2.089 2.089 0 0 0 2.73 1.58l17.86-6.2c1.65-.57 3.22 1.01 2.65 2.65l-6.2 17.86c-.42 1.2.33 2.49 1.58 2.73l18.56 3.56c1.71.33 2.29 2.48.97 3.62l-14.3 12.36c-.96.83-.96 2.32 0 3.15l14.3 12.36c1.32 1.14.74 3.3-.97 3.62l-18.56 3.56a2.089 2.089 0 0 0-1.58 2.73l6.2 17.86c.57 1.65-1.01 3.22-2.65 2.65l-17.86-6.2c-1.2-.42-2.49.33-2.73 1.58l-3.56 18.56c-.33 1.71-2.48 2.29-3.62.97l-12.36-14.3c-.83-.96-2.32-.96-3.15 0l-12.36 14.3c-1.14 1.32-3.3.74-3.62-.97l-3.56-18.56a2.089 2.089 0 0 0-2.73-1.58l-17.86 6.2c-1.65.57-3.22-1.01-2.65-2.65l6.2-17.86c.42-1.2-.33-2.49-1.58-2.73L5.47 81.57c-1.71-.33-2.29-2.48-.97-3.62l14.3-12.36c.96-.83.96-2.32 0-3.15L4.5 50.06c-1.32-1.14-.74-3.3.97-3.62l18.56-3.56a2.089 2.089 0 0 0 1.58-2.73l-6.2-17.86c-.57-1.65 1.01-3.22 2.65-2.65l17.86 6.2c1.2.42 2.49-.33 2.73-1.58L46.21 5.7c.33-1.71 2.48-2.29 3.62-.97l12.36 14.3c.84.95 2.33.95 3.17-.01z" fill="#F9A825"/><path d="M78.75 8.11l3.2 16.71a5.096 5.096 0 0 0 4.99 4.13c.57 0 1.13-.09 1.67-.28l16.07-5.58l-5.58 16.07c-.48 1.4-.34 2.93.4 4.21s1.99 2.17 3.45 2.45l16.71 3.2l-12.86 11.13c-1.12.97-1.76 2.37-1.76 3.85s.64 2.88 1.76 3.85l12.87 11.13l-16.71 3.2c-1.45.28-2.71 1.17-3.45 2.45s-.88 2.81-.4 4.21l5.58 16.07l-16.07-5.58c-.54-.19-1.1-.28-1.67-.28c-2.43 0-4.53 1.74-4.99 4.13l-3.2 16.71l-11.13-12.87c-.97-1.12-2.37-1.76-3.85-1.76s-2.88.64-3.85 1.76L48.8 119.89l-3.2-16.71a5.096 5.096 0 0 0-4.99-4.13c-.57 0-1.13.09-1.67.28l-16.07 5.58l5.58-16.07c.48-1.4.34-2.93-.4-4.21s-1.99-2.17-3.45-2.45l-16.71-3.2l12.87-11.13c1.12-.97 1.76-2.37 1.76-3.85s-.64-2.88-1.76-3.85L7.89 49.03l16.71-3.2c1.45-.28 2.71-1.17 3.45-2.45s.88-2.81.4-4.21L22.87 23.1l16.07 5.58c.54.19 1.1.28 1.67.28c2.43 0 4.53-1.74 4.99-4.13l3.2-16.71l11.13 12.87c.97 1.12 2.37 1.76 3.85 1.76s2.88-.64 3.85-1.76L78.75 8.11M79.29 4c-.56 0-1.14.23-1.57.72l-12.36 14.3a2.09 2.09 0 0 1-3.16 0L49.84 4.72c-.43-.5-1-.72-1.57-.72c-.94 0-1.85.63-2.06 1.69l-3.56 18.56a2.084 2.084 0 0 1-2.05 1.69c-.23 0-.46-.04-.68-.12l-17.86-6.2c-.23-.08-.47-.12-.69-.12c-1.36 0-2.45 1.36-1.96 2.77l6.2 17.86c.42 1.2-.33 2.49-1.58 2.73L5.47 46.43c-1.71.33-2.29 2.48-.97 3.62l14.3 12.36c.96.83.96 2.32 0 3.15L4.5 77.94c-1.32 1.14-.74 3.3.97 3.62l18.56 3.56c1.25.24 1.99 1.53 1.58 2.73l-6.2 17.86c-.49 1.41.6 2.77 1.96 2.77c.23 0 .46-.04.69-.12l17.86-6.2c.23-.08.46-.12.68-.12c.97 0 1.85.68 2.05 1.69l3.56 18.56c.2 1.07 1.12 1.69 2.06 1.69c.56 0 1.14-.23 1.57-.72l12.36-14.3a2.09 2.09 0 0 1 3.16 0l12.36 14.3c.43.5 1 .72 1.57.72c.94 0 1.85-.63 2.06-1.69l3.56-18.56a2.084 2.084 0 0 1 2.05-1.69c.23 0 .46.04.68.12l17.86 6.2c.23.08.47.12.69.12c1.36 0 2.45-1.36 1.96-2.77l-6.2-17.86c-.42-1.2.33-2.49 1.58-2.73l18.56-3.56c1.71-.33 2.29-2.48.97-3.62l-14.3-12.36c-.96-.83-.96-2.32 0-3.15l14.3-12.36c1.32-1.14.74-3.3-.97-3.62l-18.56-3.56a2.089 2.089 0 0 1-1.58-2.73l6.2-17.86c.49-1.41-.6-2.77-1.96-2.77c-.23 0-.46.04-.69.12l-17.86 6.2c-.23.08-.46.12-.68.12c-.97 0-1.85-.68-2.05-1.69L81.34 5.69C81.14 4.63 80.22 4 79.29 4z" fill="#424242" opacity=".2"/><radialGradient id="IconifyId-16ee25da4f1-17c37f-1897" cx="57.673" cy="54.495" r="39.357" gradientTransform="translate(1.803 1.803) scale(.9718)" gradientUnits="userSpaceOnUse"><stop stop-color="#FFD54F" offset=".217"/><stop stop-color="#FFC107" offset=".86"/></radialGradient><circle cx="64.01" cy="64" r="39" fill="url(#IconifyId-16ee25da4f1-17c37f-1897)"/><path d="M64.21 87.34c-6.63.13-10.58-4.11-11.26-6.17c-.26-.79-.1-1.51.37-1.93c.35-.32.82-.42 1.3-.28c.16.05.32.12.48.22c2.44 1.54 5.69 2.47 9.02 2.41c3.31-.06 6.51-1.12 8.88-2.75c.15-.1.31-.18.47-.24c.47-.16.95-.08 1.31.23c.49.41.67 1.12.44 1.92c-.59 2.08-4.38 6.47-11.01 6.59z" fill="#4E342E"/><path d="M69.02 67.29a1.63 1.63 0 0 0-.42-.11h-9.2c-.14.02-.28.05-.42.11c-.83.34-1.29 1.2-.9 2.12c.4.92 2.23 3.5 5.92 3.5s5.52-2.58 5.92-3.5c.39-.91-.07-1.78-.9-2.12z" fill="#E59600"/><circle cx="64.01" cy="64" r="40.64" fill="none" opacity=".2"/><ellipse cx="48.9" cy="55.14" rx="6.41" ry="6.64" fill="#4E342E"/><ellipse cx="78.94" cy="54.98" rx="6.41" ry="6.64" fill="#4E342E"/><rect x="0" y="0" width="50" height="30" fill="rgba(0, 0, 0, 0)" /></svg>