<svg xmlns="http://www.w3.org/2000/svg" xmlns:xlink="http://www.w3.org/1999/xlink" version="1.1" x="0px" y="0px" viewBox="0 0 100 125" enable-background="new 0 0 100 100" xml:space="preserve"><path fill-rule="evenodd" clip-rule="evenodd" d="M69.727,26.249c10.066-1.066,18.233-4.482,24.5-10.25  c0.4,3.566,0.65,8.35,0.75,14.35c0.2,9.201-3.05,18.135-9.75,26.801c-6.7,8.666-17.017,13-30.95,13l-24.45-1.75  c-4.767,0-9.383,0.816-13.85,2.449c-0.3,0.102-0.617,0.217-0.95,0.352c-0.566,0.898-1.117,1.816-1.65,2.75v0.049  c-0.233,0.301-0.417,0.617-0.55,0.951c-0.034,0.033-0.05,0.066-0.05,0.1c-1.367,2.4-2.583,4.934-3.65,7.6  c-0.2,0.533-0.567,0.934-1.1,1.199c-0.533,0.201-1.083,0.201-1.65,0c-0.567-0.232-0.95-0.615-1.15-1.148  c-0.267-0.533-0.283-1.066-0.05-1.602c1.1-2.865,2.367-5.582,3.8-8.148l-0.05,0.049c0.233-0.4,0.467-0.799,0.7-1.199  c0.267-0.467,0.533-0.934,0.8-1.4c10.067-16.566,26.934-28.551,50.6-35.949c-23.7,5.066-40.65,14.916-50.85,29.549  c0.1-7.434,1.817-13.6,5.15-18.5c5.867-8.633,12.033-13.783,18.5-15.449c6.433-1.666,13.316-2.633,20.65-2.9  C61.777,26.849,66.86,26.55,69.727,26.249z"/></svg>
